<svg width="80" height="75" viewBox="0 0 80 75" fill="none" xmlns="http://www.w3.org/2000/svg">
<path id="Vector" d="M45.7154 61.389V52.9053C45.7154 52.1023 45.0896 51.4309 44.2867 51.4309H35.7144C34.9114 51.4309 34.2857 52.0995 34.2857 52.9053V61.389C34.2857 62.1919 34.9114 62.8634 35.7144 62.8634H44.2867C45.0896 62.8634 45.7154 62.1948 45.7154 61.389ZM45.6268 44.693L46.4297 24.1996C46.4297 23.931 46.2954 23.5738 45.984 23.3509C45.7154 23.128 45.3153 22.8594 44.9124 22.8594H35.0915C34.6886 22.8594 34.2885 23.128 34.0199 23.3509C33.7085 23.5738 33.5742 24.0195 33.5742 24.2881L34.3342 44.693C34.3342 45.2731 35.0029 45.7189 35.8515 45.7189H44.1124C44.9153 45.7189 45.5868 45.2731 45.6297 44.693H45.6268ZM45.001 2.99173L79.2902 65.8552C80.2731 67.5953 80.2274 69.7384 79.2016 71.4814C78.1758 73.2245 76.2984 74.2931 74.2896 74.2931H5.71138C3.7026 74.2931 1.82813 73.2216 0.799456 71.4814C-0.229218 69.7413 -0.272079 67.5982 0.710876 65.8552L35 2.99173C35.983 1.16012 37.9032 0 40.0005 0C42.0979 0 44.0181 1.16012 45.001 2.99173Z" fill="#DE4242"/>
</svg>
