<svg width="43" height="40" viewBox="0 0 43 40" fill="none" xmlns="http://www.w3.org/2000/svg">
<g id="Home">
<path id="Vector" d="M10.9121 14C10.9121 12.9 11.8553 12 13.0081 12H28.7281C29.3066 12 29.7761 12.448 29.7761 13V14H13.0081V15H30.8241C31.4026 15 31.8721 15.448 31.8721 16V26C31.8721 27.105 30.9341 28 29.7761 28H13.0081C11.8501 28 10.9121 27.105 10.9121 26V14ZM28.2041 23C29.0719 23 29.7761 22.328 29.7761 21.5C29.7761 20.672 29.0719 20 28.2041 20C27.3364 20 26.6321 20.672 26.6321 21.5C26.6321 22.328 27.3364 23 28.2041 23Z" fill="black"/>
</g>
</svg>
