<svg width="22" height="20" viewBox="0 0 22 20" fill="none" xmlns="http://www.w3.org/2000/svg">
<g id="currency-dollar 1" clip-path="url(#clip0_88_374)">
<path id="Vector" d="M11.1279 20C5.33985 20 0.647949 15.523 0.647949 10C0.647949 4.477 5.33985 0 11.1279 0C16.9161 0 21.6079 4.477 21.6079 10C21.6079 15.523 16.9161 20 11.1279 20ZM12.1759 15H13.2239C14.9605 15 16.3679 13.657 16.3679 12C16.3679 10.343 14.9605 9 13.2239 9H9.02147C8.44297 9 7.97347 8.552 7.97347 8C7.97347 7.448 8.44297 7 9.02147 7H15.3199V5H12.1759V3H10.0799V5H9.03195C7.29541 5 5.88795 6.343 5.88795 8C5.88795 9.657 7.29541 11 9.03195 11H13.2239C13.8024 11 14.2719 11.448 14.2719 12C14.2719 12.552 13.8024 13 13.2239 13H6.93595V15H10.0799V17H12.1759V15Z" fill="black"/>
</g>
<defs>
<clipPath id="clip0_88_374">
<rect width="20.96" height="20" fill="white" transform="translate(0.647949)"/>
</clipPath>
</defs>
</svg>
