<svg width="32" height="32" viewBox="0 0 32 32" fill="none" xmlns="http://www.w3.org/2000/svg">
<g id="radio-checked" clip-path="url(#clip0_82_327)">
<path id="Vector" d="M16 0C7.163 0 0 7.163 0 16C0 24.837 7.163 32 16 32C24.837 32 32 24.837 32 16C32 7.163 24.837 0 16 0ZM16 28C9.373 28 4 22.627 4 16C4 9.373 9.373 4 16 4C22.627 4 28 9.373 28 16C28 22.627 22.627 28 16 28ZM10 16C10 12.686 12.686 10 16 10C19.314 10 22 12.686 22 16C22 19.314 19.314 22 16 22C12.686 22 10 19.314 10 16Z" fill="#00B1E5"/>
</g>
<defs>
<clipPath id="clip0_82_327">
<rect width="32" height="32" fill="white"/>
</clipPath>
</defs>
</svg>
