<svg width="43" height="40" viewBox="0 0 43 40" fill="none" xmlns="http://www.w3.org/2000/svg">
<g id="Profile">
<path id="Vector" d="M30.499 21.9194C29.4113 20.1019 30.0656 17.7731 31.96 16.7144L29.9224 13.31C29.3407 13.6394 28.6637 13.8281 27.9413 13.8281C25.7639 13.8281 23.9991 12.1144 23.9991 10H19.9247C19.9299 10.6525 19.7615 11.3144 19.3993 11.9187C18.3116 13.7362 15.8937 14.3544 13.9968 13.3006L11.96 16.705C12.5463 17.0269 13.0542 17.4975 13.415 18.1013C14.5009 19.9156 13.8504 22.2406 11.9632 23.3006L14.0007 26.705C14.5805 26.3787 15.2543 26.1925 15.9728 26.1925C18.1431 26.1925 19.9033 27.8956 19.9144 30H23.9887C23.9868 29.3538 24.1565 28.7 24.5141 28.1012C25.5999 26.2869 28.0119 25.6675 29.9075 26.7144L31.9451 23.31C31.3626 22.9881 30.858 22.5194 30.499 21.9194ZM21.9596 24.05C19.6416 24.05 17.7622 22.2369 17.7622 20.0006C17.7622 17.7644 19.6416 15.9513 21.9596 15.9513C24.2777 15.9513 26.1571 17.7644 26.1571 20.0006C26.1571 22.2369 24.2777 24.05 21.9596 24.05Z" fill="black"/>
</g>
</svg>
